<svg width="116" height="32" viewBox="0 0 116 32" fill="none" xmlns="http://www.w3.org/2000/svg">
<path d="M45.1294 6.08479C46.5287 6.08479 47.7107 6.26746 48.676 6.63212C49.64 6.99679 50.5374 7.51946 51.3674 8.19879L49.5534 10.3581C48.934 9.83812 48.2687 9.45346 47.5587 9.20346C46.8487 8.95346 46.0947 8.82879 45.2954 8.82879C44.2654 8.82879 43.3154 9.08879 42.4467 9.60812C41.5767 10.1281 40.88 10.9728 40.3554 12.1421C39.8307 13.3115 39.568 14.8708 39.568 16.8201C39.568 18.7295 39.818 20.2688 40.318 21.4381C40.818 22.6075 41.5027 23.4575 42.3727 23.9868C43.242 24.5168 44.2167 24.7815 45.2967 24.7815C46.4054 24.7815 47.3247 24.5995 48.0547 24.2341C48.7847 23.8695 49.4294 23.4568 49.9887 22.9975L51.668 25.1415C50.978 25.8115 50.1034 26.3881 49.0447 26.8728C47.9854 27.3575 46.6954 27.6001 45.176 27.6001C43.4267 27.6001 41.8547 27.1881 40.4607 26.3628C39.0667 25.5381 37.9667 24.3261 37.1627 22.7268C36.3554 21.1281 35.9534 19.1588 35.9534 16.8201C35.9534 14.5015 36.3687 12.5448 37.198 10.9501C38.028 9.35546 39.1367 8.14612 40.5274 7.32145C41.9154 6.49679 43.45 6.08479 45.1294 6.08479ZM67.1054 11.4748C66.73 11.4001 66.308 11.3621 65.8387 11.3621C64.4594 11.3621 63.332 11.7095 62.4574 12.4041C61.5827 13.0988 60.8507 14.1108 60.2614 15.4401L59.6467 11.7668H54.7594V14.1508H57.0827V25.2008H54.7594V27.6001H63.6354V25.2015H60.442V19.3241C60.9214 17.7448 61.5787 16.5255 62.4134 15.6655C63.214 14.8408 64.1634 14.4228 65.2547 14.3895V17.6001H67.6534L68.2227 11.7675C67.852 11.6475 67.48 11.5501 67.1054 11.4748ZM79.558 11.7675V25.1415H84.6507V27.6001H71.4614V25.1408H76.1994V14.2261H71.612V11.7675H79.558ZM77.2194 4.01545C77.8787 4.01545 78.4114 4.21612 78.816 4.61546C79.2214 5.01546 79.4234 5.51546 79.4234 6.11479C79.4234 6.71479 79.2214 7.21946 78.816 7.62879C78.4114 8.03879 77.8787 8.24346 77.2194 8.24346C76.58 8.24346 76.0547 8.03879 75.6447 7.62879C75.2347 7.21946 75.0307 6.71412 75.0307 6.11479C75.0307 5.51546 75.2347 5.01546 75.6447 4.61546C76.0547 4.21612 76.58 4.01545 77.2194 4.01545ZM91.4774 13.6515C92.0267 12.9315 92.6694 12.3675 93.404 11.9575C94.1394 11.5475 94.946 11.3428 95.826 11.3428C97.2147 11.3428 98.342 11.6855 99.2067 12.3701C100.071 13.0548 100.705 14.0195 101.111 15.2641C101.515 16.5088 101.718 17.9701 101.718 19.6495C101.718 21.2588 101.477 22.6928 100.998 23.9521C100.518 25.2115 99.8114 26.2015 98.8767 26.9208C97.942 27.6401 96.79 28.0001 95.4207 28.0001C93.6514 28.0001 92.262 27.3455 91.2527 26.0361L91.0734 27.5955H88.1194V5.40479L91.478 5.03012V13.6515H91.4774ZM94.5814 25.4361C95.72 25.4361 96.6027 24.9708 97.2274 24.0415C97.8514 23.1115 98.1647 21.6528 98.1647 19.6635C98.1647 18.3135 98.0394 17.2168 97.7894 16.3721C97.5394 15.5281 97.172 14.9101 96.6874 14.5208C96.2027 14.1308 95.61 13.9361 94.9114 13.9361C94.1614 13.9361 93.502 14.1615 92.9327 14.6108C92.3627 15.0608 91.878 15.5908 91.478 16.2001V23.6068C91.848 24.1768 92.2954 24.6241 92.8207 24.9488C93.3447 25.2735 93.9314 25.4361 94.5814 25.4361ZM110.196 5.03012V22.9021C110.196 23.6321 110.418 24.1495 110.863 24.4541C111.308 24.7588 111.885 24.9115 112.595 24.9115C113.054 24.9115 113.489 24.8615 113.899 24.7615C114.309 24.6615 114.709 24.5368 115.099 24.3868L115.953 26.7255C115.483 26.9648 114.906 27.1748 114.222 27.3548C113.537 27.5348 112.755 27.6248 111.875 27.6248C110.285 27.6248 109.049 27.1775 108.164 26.2828C107.28 25.3888 106.838 24.1615 106.838 22.6021V7.50412H102.845V5.03012H110.196ZM114.739 6.34945L114.397 5.72879H114.157V6.34945H113.876V4.76346H114.41C114.74 4.76346 114.995 4.88012 114.995 5.23412C114.995 5.47679 114.869 5.62212 114.677 5.68745L115.055 6.34945H114.739ZM114.157 5.50546H114.381C114.599 5.50546 114.715 5.41345 114.715 5.23345C114.715 5.05145 114.599 4.98879 114.381 4.98879H114.157V5.50546ZM114.421 7.06546C113.575 7.06546 112.888 6.37812 112.888 5.53279C112.888 4.68746 113.575 4.00012 114.421 4.00012C115.266 4.00012 115.953 4.68746 115.953 5.53279C115.953 6.37812 115.265 7.06546 114.421 7.06546ZM114.421 4.25546C113.717 4.25546 113.143 4.82812 113.143 5.53279C113.143 6.23746 113.716 6.81012 114.421 6.81012C115.125 6.81012 115.698 6.23746 115.698 5.53279C115.698 4.82812 115.125 4.25546 114.421 4.25546Z" fill="black"/>
<path d="M11.9647 6.76099C12.1473 6.86632 12.1353 7.01233 11.9373 7.08566L0.361333 11.3743C0.238 11.4357 0.0886644 11.3857 0.027331 11.2623C0.0059977 11.2197 -0.00266813 11.1723 0.0026652 11.125V0.236325C0.0026652 0.0256585 0.151999 -0.0603406 0.334666 0.0449927L11.9647 6.76099ZM14.7187 8.34966C14.5047 8.24166 14.2573 8.22032 14.028 8.29099L0.359332 13.355C0.150665 13.4443 0.0113333 13.6443 0 13.871V14.6877C0.000666667 14.899 0.171998 15.0697 0.382665 15.0703H25.972C26.1827 15.0703 26.206 14.9843 26.0233 14.8803L14.7187 8.34966Z" fill="#00CCCC"/>
<path d="M0.333534 31.9553C0.150867 32.0606 0.00153323 31.9739 0.00153323 31.7639V20.8753C-0.0038001 20.8279 0.00486573 20.7799 0.0261991 20.7379C0.0875324 20.6146 0.237532 20.5646 0.360199 20.6259L11.9362 24.9146C12.1342 24.9879 12.1462 25.1333 11.9635 25.2393L0.333534 31.9553Z" fill="#00CCCC"/>
<path d="M26.0227 17.1185C26.2053 17.0151 26.182 16.9285 25.9713 16.9285H0.382665C0.171332 16.9291 0.000666667 17.1005 0 17.3111V18.1278C0.0113333 18.3545 0.150665 18.5545 0.359332 18.6438L14.028 23.7078C14.2573 23.7785 14.5047 23.7571 14.7187 23.6491L26.0227 17.1185Z" fill="#00CCCC"/>
</svg>
